<svg width="12" height="12" viewBox="0 0 12 12" fill="none" xmlns="http://www.w3.org/2000/svg">
<path d="M6.00072 4.58672L10.2437 0.34372C10.6342 -0.0467457 11.2673 -0.0467466 11.6577 0.343719C12.0482 0.734184 12.0482 1.36725 11.6577 1.75772L7.41472 6.00072L11.6577 10.2437C12.0482 10.6342 12.0482 11.2673 11.6577 11.6577C11.2673 12.0482 10.6342 12.0482 10.2437 11.6577L6.00072 7.41472L1.75772 11.6577C1.36725 12.0482 0.734184 12.0482 0.343719 11.6577C-0.0467467 11.2673 -0.0467464 10.6342 0.343719 10.2437L4.58672 6.00072L0.34372 1.75772C-0.0467457 1.36725 -0.0467466 0.734184 0.343719 0.343719C0.734184 -0.0467466 1.36725 -0.0467465 1.75772 0.343719L6.00072 4.58672Z" fill="#9F9F9F"/>
</svg>
