<svg width="56" height="56" viewBox="0 0 56 56" fill="none" xmlns="http://www.w3.org/2000/svg">
<path d="M28 0C12.544 0 0 12.544 0 28C0 43.456 12.544 56 28 56C43.456 56 56 43.456 56 28C56 12.544 43.456 0 28 0ZM28 11.2C33.404 11.2 37.8 15.596 37.8 21C37.8 26.404 33.404 30.8 28 30.8C22.596 30.8 18.2 26.404 18.2 21C18.2 15.596 22.596 11.2 28 11.2ZM28 50.4C22.316 50.4 15.596 48.104 10.808 42.336C15.54 38.64 21.504 36.4 28 36.4C34.496 36.4 40.46 38.64 45.192 42.336C40.404 48.104 33.684 50.4 28 50.4Z" fill="#B2E6FA"/>
</svg>
