<svg width="72" height="72" viewBox="0 0 72 72" fill="none" xmlns="http://www.w3.org/2000/svg">
<circle cx="36" cy="36" r="35.5" fill="white" stroke="#E3E3E3"/>
<path d="M55.36 36.458C55.36 35.028 55.2317 33.653 54.9933 32.333H36V40.143H46.8533C46.3767 42.6547 44.9467 44.7813 42.8017 46.2113V51.2897H49.3467C53.16 47.7697 55.36 42.5997 55.36 36.458Z" fill="#4285F4"/>
<path d="M35.9994 56.1663C41.4444 56.1663 46.0094 54.3696 49.3461 51.2896L42.8011 46.2113C41.0044 47.4213 38.7128 48.1546 35.9994 48.1546C30.7561 48.1546 26.3011 44.6163 24.7061 39.8496H17.9961V45.0563C21.3144 51.6379 28.1161 56.1663 35.9994 56.1663Z" fill="#34A853"/>
<path d="M24.7054 39.8319C24.302 38.6219 24.0637 37.3386 24.0637 36.0002C24.0637 34.6619 24.302 33.3786 24.7054 32.1686V26.9619H17.9954C16.6204 29.6752 15.832 32.7369 15.832 36.0002C15.832 39.2636 16.6204 42.3252 17.9954 45.0386L23.2204 40.9686L24.7054 39.8319Z" fill="#FBBC05"/>
<path d="M35.9994 23.863C38.9694 23.863 41.6094 24.8897 43.7178 26.8697L49.4928 21.0947C45.9911 17.8313 41.4444 15.833 35.9994 15.833C28.1161 15.833 21.3144 20.3613 17.9961 26.9613L24.7061 32.168C26.3011 27.4013 30.7561 23.863 35.9994 23.863Z" fill="#EA4335"/>
</svg>
