<svg width="72" height="72" viewBox="0 0 72 72" fill="none" xmlns="http://www.w3.org/2000/svg">
<circle cx="36" cy="36" r="36" fill="#FFE812"/>
<path d="M35.5 17C23.0735 17 13 25.0692 13 35.0229C13 41.4582 17.2114 47.1049 23.5464 50.2934C23.2018 51.5009 21.3317 58.0617 21.2573 58.5771C21.2573 58.5771 21.2125 58.9644 21.4594 59.1121C21.7062 59.2598 21.9965 59.145 21.9965 59.145C22.7044 59.0446 30.2054 53.6918 31.5037 52.7623C32.8006 52.9489 34.1362 53.0458 35.5 53.0458C47.9265 53.0458 58 44.9768 58 35.0229C58 25.0692 47.9265 17 35.5 17Z" fill="black"/>
<path d="M23.2511 41.375C22.5308 41.375 21.9449 40.7854 21.9449 40.0605V31.8831H19.9068C19.1999 31.8831 18.625 31.2784 18.625 30.5353C18.625 29.7922 19.2002 29.1875 19.9068 29.1875H26.5955C27.3023 29.1875 27.8773 29.7922 27.8773 30.5353C27.8773 31.2784 27.3021 31.8831 26.5955 31.8831H24.5573V40.0605C24.5573 40.7854 23.9715 41.375 23.2511 41.375ZM34.7048 41.3571C34.1601 41.3571 33.7434 41.124 33.6178 40.7492L32.971 38.9648L28.988 38.9646L28.3408 40.7501C28.2156 41.1243 27.7991 41.3571 27.2544 41.3571C26.9679 41.3574 26.6847 41.2926 26.4241 41.1672C26.0641 40.9921 25.7179 40.5108 26.1146 39.2126L29.239 30.5463C29.4591 29.8872 30.1277 29.2081 30.9784 29.1877C31.8316 29.2079 32.5002 29.8872 32.7207 30.5477L35.8438 39.21C36.2413 40.5113 35.8952 40.9928 35.5351 41.1674C35.2745 41.2926 34.9913 41.3573 34.7048 41.3571ZM32.2842 36.5266L30.9795 32.6209L29.6748 36.5266H32.2842ZM37.9459 41.1743C37.2556 41.1743 36.6942 40.6081 36.6942 39.9125V30.564C36.6942 29.8048 37.2924 29.1875 38.0276 29.1875C38.7628 29.1875 39.361 29.8048 39.361 30.564V38.6507H42.1367C42.827 38.6507 43.3885 39.2169 43.3885 39.9125C43.3885 40.6081 42.827 41.1743 42.1367 41.1743H37.9459ZM45.2028 41.3571C44.4824 41.3571 43.8966 40.7398 43.8966 39.9806V30.564C43.8966 29.8048 44.4824 29.1875 45.2028 29.1875C45.9232 29.1875 46.509 29.8048 46.509 30.564V33.5225L50.1533 29.6821C50.3407 29.4846 50.5983 29.3758 50.8778 29.3758C51.2039 29.3758 51.5313 29.524 51.7767 29.7824C52.0055 30.0232 52.142 30.3332 52.1607 30.655C52.1797 30.9797 52.0771 31.2772 51.8725 31.4931L48.8959 34.6294L52.1111 39.118C52.2149 39.262 52.2905 39.4263 52.3336 39.6014C52.3766 39.7765 52.3862 39.9588 52.3619 40.1378C52.3386 40.3169 52.2818 40.4894 52.1948 40.6452C52.1078 40.801 51.9923 40.9371 51.8551 41.0456C51.6292 41.2265 51.3531 41.3241 51.0694 41.3234C50.867 41.3244 50.6672 41.2754 50.486 41.1804C50.3048 41.0854 50.1472 40.947 50.0259 40.7762L46.9627 36.4991L46.5094 36.9767V39.9799C46.509 40.345 46.3712 40.695 46.1263 40.9532C45.8813 41.2114 45.5492 41.3566 45.2028 41.3571Z" fill="#FFE812"/>
</svg>
