<svg width="30" height="26" viewBox="0 0 30 26" fill="none" xmlns="http://www.w3.org/2000/svg">
<path d="M27.8083 6.92871C26.9271 6.92871 26.2109 7.64317 26.2109 8.5223C26.2109 9.40144 26.9271 10.1159 27.8083 10.1159C28.6895 10.1159 29.4056 9.40144 29.4056 8.5223C29.4056 7.64317 28.6895 6.92871 27.8083 6.92871Z" fill="#80D6F7"/>
<path d="M22.3573 15.916L19.7031 17.7858L23.2146 25.3182H26.7393L22.3573 15.916Z" fill="white"/>
<path d="M24.6956 8.74502L14.9653 15.5948L15.0132 13.6984C15.0265 13.1221 14.7283 12.5803 14.2305 12.2881C13.7327 11.9933 13.115 11.9906 12.6145 12.2801L9.3267 14.1871L13.6767 4.854L17.1935 12.4023L19.8451 10.5352L15.1223 0.399902H12.2258L4.49745 16.9839L4.44686 17.0131L4.46816 17.0503L0.613281 25.3184H4.13539L6.97064 19.2335L11.7466 16.466L11.6907 18.6837C11.6748 19.2866 12.0022 19.8444 12.5347 20.1286C12.7716 20.2534 13.0298 20.3172 13.2881 20.3172C13.6129 20.3172 13.935 20.2189 14.2092 20.025L26.5379 11.3479L24.6956 8.74502Z" fill="white"/>
<path d="M13.2826 20.3172C13.0244 20.3172 12.7661 20.2561 12.5292 20.1286C11.9968 19.8444 11.6693 19.284 11.6853 18.6838L11.7412 16.466L6.04672 19.7674L4.44141 17.0105L12.6091 12.2749C13.1096 11.9854 13.7272 11.988 14.225 12.2828C14.7229 12.5777 15.0237 13.1168 15.0077 13.6932L14.9598 15.5895L24.6902 8.73975L26.5324 11.3426L14.2037 20.0197C13.9295 20.2136 13.6074 20.3119 13.2826 20.3119V20.3172Z" fill="url(#paint0_linear_284_2601)"/>
<defs>
<linearGradient id="paint0_linear_284_2601" x1="25.3371" y1="9.28422" x2="6.33255" y2="20.2813" gradientUnits="userSpaceOnUse">
<stop stop-color="#80D6F7"/>
<stop offset="1" stop-color="white" stop-opacity="0"/>
</linearGradient>
</defs>
</svg>
